<mxfile host="65bd71144e">
    <diagram id="EYUW9VS5qTlCsF7O1JQ7" name="Page-1">
        <mxGraphModel dx="834" dy="681" grid="0" gridSize="10" guides="1" tooltips="1" connect="1" arrows="1" fold="1" page="0" pageScale="1" pageWidth="850" pageHeight="1100" background="#ffffff" math="0" shadow="0">
            <root>
                <mxCell id="0"/>
                <mxCell id="1" parent="0"/>
                <mxCell id="2" style="edgeStyle=none;html=1;exitX=0.5;exitY=1;exitDx=0;exitDy=0;endArrow=none;endFill=0;fontSize=13;" parent="1" source="3" target="17" edge="1">
                    <mxGeometry relative="1" as="geometry">
                        <mxPoint x="397" y="505" as="targetPoint"/>
                    </mxGeometry>
                </mxCell>
                <mxCell id="3" value="&lt;b style=&quot;font-size: 13px;&quot;&gt;Spoke1&lt;/b&gt;&lt;br style=&quot;font-size: 13px;&quot;&gt;10.1.0.0/24&lt;br style=&quot;font-size: 13px;&quot;&gt;&lt;br style=&quot;font-size: 13px;&quot;&gt;&lt;b style=&quot;font-size: 13px;&quot;&gt;VM 10.1.0.4&lt;/b&gt;" style="whiteSpace=wrap;html=1;fillColor=#dae8fc;strokeColor=#6c8ebf;dashed=1;fontSize=13;" parent="1" vertex="1">
                    <mxGeometry x="204" y="339" width="160" height="100" as="geometry"/>
                </mxCell>
                <mxCell id="4" value="" style="aspect=fixed;html=1;points=[];align=center;image;fontSize=13;image=img/lib/azure2/networking/Virtual_Networks.svg;dashed=1;" parent="1" vertex="1">
                    <mxGeometry x="344" y="343" width="16.75" height="10" as="geometry"/>
                </mxCell>
                <mxCell id="5" style="edgeStyle=none;html=1;entryX=0.769;entryY=0.313;entryDx=0;entryDy=0;entryPerimeter=0;endArrow=none;endFill=0;fontSize=13;exitX=0.5;exitY=1;exitDx=0;exitDy=0;" parent="1" source="69" target="17" edge="1">
                    <mxGeometry relative="1" as="geometry">
                        <mxPoint x="520" y="403" as="sourcePoint"/>
                    </mxGeometry>
                </mxCell>
                <mxCell id="7" value="" style="aspect=fixed;html=1;points=[];align=center;image;fontSize=13;image=img/lib/azure2/networking/Virtual_Networks.svg;dashed=1;" parent="1" vertex="1">
                    <mxGeometry x="564.35" y="322" width="16.75" height="10" as="geometry"/>
                </mxCell>
                <mxCell id="14" style="edgeStyle=none;html=1;endArrow=none;endFill=0;strokeColor=#FF8000;entryX=0.5;entryY=0;entryDx=0;entryDy=0;strokeWidth=2;fontSize=13;" parent="1" source="17" target="18" edge="1">
                    <mxGeometry relative="1" as="geometry">
                        <mxPoint x="407.35" y="652" as="targetPoint"/>
                    </mxGeometry>
                </mxCell>
                <mxCell id="15" value="IPSec + BGP" style="edgeLabel;html=1;align=center;verticalAlign=middle;resizable=0;points=[];fontStyle=1;fontColor=#FF8000;fontSize=13;" parent="14" vertex="1" connectable="0">
                    <mxGeometry x="0.3666" y="-2" relative="1" as="geometry">
                        <mxPoint x="-52" y="4" as="offset"/>
                    </mxGeometry>
                </mxCell>
                <mxCell id="16" style="edgeStyle=none;html=1;strokeColor=#000000;fontColor=#FF8000;endArrow=none;endFill=0;dashed=1;fontSize=13;" parent="1" source="17" target="39" edge="1">
                    <mxGeometry relative="1" as="geometry"/>
                </mxCell>
                <mxCell id="17" value="&lt;b style=&quot;font-size: 13px;&quot;&gt;Hub1&lt;br style=&quot;font-size: 13px;&quot;&gt;192.168.1.0/24&lt;/b&gt;" style="aspect=fixed;html=1;points=[];align=center;image;fontSize=13;image=img/lib/azure2/networking/Virtual_WANs.svg;" parent="1" vertex="1">
                    <mxGeometry x="397" y="489" width="79.22" height="78" as="geometry"/>
                </mxCell>
                <mxCell id="18" value="&lt;b style=&quot;font-size: 13px;&quot;&gt;Branch 1&lt;/b&gt;&lt;br style=&quot;font-size: 13px;&quot;&gt;10.100.0.0/16&lt;br style=&quot;font-size: 13px;&quot;&gt;&lt;br style=&quot;font-size: 13px;&quot;&gt;&lt;b style=&quot;font-size: 13px;&quot;&gt;VM 10.100.0.4&lt;/b&gt;" style="whiteSpace=wrap;html=1;fillColor=#eeeeee;strokeColor=#36393d;dashed=1;fontSize=13;" parent="1" vertex="1">
                    <mxGeometry x="356.61" y="694" width="160" height="100" as="geometry"/>
                </mxCell>
                <mxCell id="19" value="spoke1conn" style="text;html=1;align=center;verticalAlign=middle;resizable=0;points=[];autosize=1;strokeColor=none;fillColor=none;rotation=30;fontSize=13;" parent="1" vertex="1">
                    <mxGeometry x="284.35" y="462" width="90" height="30" as="geometry"/>
                </mxCell>
                <mxCell id="20" value="spoke2conn" style="text;html=1;align=center;verticalAlign=middle;resizable=0;points=[];autosize=1;strokeColor=none;fillColor=none;rotation=-62.1;fontColor=#6600CC;fontStyle=1;fontSize=13;" parent="1" vertex="1">
                    <mxGeometry x="427" y="432" width="100" height="30" as="geometry"/>
                </mxCell>
                <mxCell id="25" style="edgeStyle=none;html=1;exitX=0.5;exitY=1;exitDx=0;exitDy=0;endArrow=none;endFill=0;fontSize=13;" parent="1" source="26" edge="1" target="39">
                    <mxGeometry relative="1" as="geometry">
                        <mxPoint x="941.0999999999999" y="502" as="targetPoint"/>
                    </mxGeometry>
                </mxCell>
                <mxCell id="26" value="&lt;b style=&quot;font-size: 13px;&quot;&gt;Spoke3&lt;/b&gt;&lt;br style=&quot;font-size: 13px;&quot;&gt;10.3.0.0/24&lt;br style=&quot;font-size: 13px;&quot;&gt;&lt;br style=&quot;font-size: 13px;&quot;&gt;&lt;b style=&quot;font-size: 13px;&quot;&gt;VM 10.3.0.4&lt;/b&gt;" style="whiteSpace=wrap;html=1;fillColor=#dae8fc;strokeColor=#6c8ebf;dashed=1;fontSize=13;" parent="1" vertex="1">
                    <mxGeometry x="741.1" y="322" width="160" height="100" as="geometry"/>
                </mxCell>
                <mxCell id="27" value="" style="aspect=fixed;html=1;points=[];align=center;image;fontSize=13;image=img/lib/azure2/networking/Virtual_Networks.svg;dashed=1;" parent="1" vertex="1">
                    <mxGeometry x="881.1" y="327.5" width="16.75" height="10" as="geometry"/>
                </mxCell>
                <mxCell id="83" style="edgeStyle=none;html=1;fontSize=11;fontColor=#7F00FF;endArrow=none;endFill=0;exitX=0.5;exitY=1;exitDx=0;exitDy=0;" edge="1" parent="1" source="29" target="39">
                    <mxGeometry relative="1" as="geometry"/>
                </mxCell>
                <mxCell id="29" value="&lt;b&gt;&lt;br&gt;Spoke4&lt;/b&gt;&lt;br style=&quot;font-size: 13px;&quot;&gt;10.4.0.0/24&lt;br style=&quot;font-size: 13px;&quot;&gt;&lt;br style=&quot;font-size: 13px;&quot;&gt;&lt;font style=&quot;font-size: 11px;&quot;&gt;&lt;b style=&quot;&quot;&gt;NVA1 10.4.0.36&lt;br&gt;NVA2 10.4.0.37&lt;br&gt;&lt;/b&gt;&lt;b style=&quot;border-color: var(--border-color);&quot;&gt;&lt;font style=&quot;border-color: var(--border-color);&quot; color=&quot;#7f00ff&quot;&gt;ASN: 65004&lt;br&gt;&lt;/font&gt;&lt;/b&gt;&lt;b style=&quot;border-color: var(--border-color);&quot;&gt;&lt;font style=&quot;border-color: var(--border-color);&quot; color=&quot;#7f00ff&quot;&gt;Network: 10.4.0.0/16&lt;/font&gt;&lt;/b&gt;&lt;b style=&quot;&quot;&gt;&lt;br&gt;NVALB 10.4.0.38&lt;br&gt;&lt;/b&gt;&lt;/font&gt;&lt;b style=&quot;font-size: 13px;&quot;&gt;&lt;br&gt;&lt;/b&gt;" style="whiteSpace=wrap;html=1;fillColor=#f8cecc;strokeColor=#b85450;dashed=1;fontSize=13;" parent="1" vertex="1">
                    <mxGeometry x="974.75" y="267" width="160" height="134" as="geometry"/>
                </mxCell>
                <mxCell id="30" value="" style="aspect=fixed;html=1;points=[];align=center;image;fontSize=13;image=img/lib/azure2/networking/Virtual_Networks.svg;dashed=1;" parent="1" vertex="1">
                    <mxGeometry x="1113" y="269" width="16.75" height="10" as="geometry"/>
                </mxCell>
                <mxCell id="31" style="edgeStyle=none;html=1;exitX=0.5;exitY=1;exitDx=0;exitDy=0;entryX=0.5;entryY=0;entryDx=0;entryDy=0;endArrow=none;endFill=0;fontSize=13;" parent="1" source="32" target="29" edge="1">
                    <mxGeometry relative="1" as="geometry"/>
                </mxCell>
                <mxCell id="32" value="&lt;b style=&quot;font-size: 13px;&quot;&gt;Spoke7&lt;/b&gt;&lt;br style=&quot;font-size: 13px;&quot;&gt;10.4.1.0/24&lt;br style=&quot;font-size: 13px;&quot;&gt;&lt;br style=&quot;font-size: 13px;&quot;&gt;&lt;b style=&quot;font-size: 13px;&quot;&gt;VM 10.4.1.4&lt;/b&gt;" style="whiteSpace=wrap;html=1;fillColor=#dae8fc;strokeColor=#6c8ebf;dashed=1;fontSize=13;" parent="1" vertex="1">
                    <mxGeometry x="860.45" y="133" width="136.55" height="100" as="geometry"/>
                </mxCell>
                <mxCell id="33" value="" style="aspect=fixed;html=1;points=[];align=center;image;fontSize=13;image=img/lib/azure2/networking/Virtual_Networks.svg;dashed=1;" parent="1" vertex="1">
                    <mxGeometry x="978" y="135" width="16.75" height="10" as="geometry"/>
                </mxCell>
                <mxCell id="34" style="edgeStyle=none;html=1;exitX=0.5;exitY=1;exitDx=0;exitDy=0;endArrow=none;endFill=0;fontSize=13;entryX=0.5;entryY=0;entryDx=0;entryDy=0;" parent="1" source="35" edge="1" target="29">
                    <mxGeometry relative="1" as="geometry">
                        <mxPoint x="1061.1" y="322" as="targetPoint"/>
                    </mxGeometry>
                </mxCell>
                <mxCell id="35" value="&lt;b style=&quot;font-size: 13px;&quot;&gt;Spoke8&lt;/b&gt;&lt;br style=&quot;font-size: 13px;&quot;&gt;10.4.2.0/24&lt;br style=&quot;font-size: 13px;&quot;&gt;&lt;br style=&quot;font-size: 13px;&quot;&gt;&lt;b style=&quot;font-size: 13px;&quot;&gt;VM 10.4.2.4&lt;/b&gt;" style="whiteSpace=wrap;html=1;fillColor=#dae8fc;strokeColor=#6c8ebf;dashed=1;fontSize=13;" parent="1" vertex="1">
                    <mxGeometry x="1076.1" y="133" width="136.9" height="100" as="geometry"/>
                </mxCell>
                <mxCell id="36" value="" style="aspect=fixed;html=1;points=[];align=center;image;fontSize=13;image=img/lib/azure2/networking/Virtual_Networks.svg;dashed=1;" parent="1" vertex="1">
                    <mxGeometry x="1195" y="135" width="16.75" height="10" as="geometry"/>
                </mxCell>
                <mxCell id="37" style="edgeStyle=none;html=1;endArrow=none;endFill=0;strokeColor=#FF8000;entryX=0.5;entryY=0;entryDx=0;entryDy=0;strokeWidth=2;fontSize=13;" parent="1" source="39" target="40" edge="1">
                    <mxGeometry relative="1" as="geometry">
                        <mxPoint x="964.1" y="652" as="targetPoint"/>
                    </mxGeometry>
                </mxCell>
                <mxCell id="38" value="IPSec + BGP" style="edgeLabel;html=1;align=center;verticalAlign=middle;resizable=0;points=[];fontStyle=1;fontColor=#FF8000;fontSize=13;" parent="37" vertex="1" connectable="0">
                    <mxGeometry x="0.3666" y="-2" relative="1" as="geometry">
                        <mxPoint x="-49" y="4" as="offset"/>
                    </mxGeometry>
                </mxCell>
                <mxCell id="39" value="&lt;b style=&quot;font-size: 13px;&quot;&gt;Hub2&lt;br style=&quot;font-size: 13px;&quot;&gt;192.168.2.0/24&lt;/b&gt;" style="aspect=fixed;html=1;points=[];align=center;image;fontSize=13;image=img/lib/azure2/networking/Virtual_WANs.svg;" parent="1" vertex="1">
                    <mxGeometry x="931.1" y="492" width="79.22" height="78" as="geometry"/>
                </mxCell>
                <mxCell id="40" value="&lt;b style=&quot;font-size: 13px;&quot;&gt;Branch 2&lt;/b&gt;&lt;br style=&quot;font-size: 13px;&quot;&gt;10.100.0.0/16&lt;br style=&quot;font-size: 13px;&quot;&gt;&lt;br style=&quot;font-size: 13px;&quot;&gt;&lt;b style=&quot;font-size: 13px;&quot;&gt;VM 10.200.0.4&lt;/b&gt;" style="whiteSpace=wrap;html=1;fillColor=#eeeeee;strokeColor=#36393d;dashed=1;fontSize=13;" parent="1" vertex="1">
                    <mxGeometry x="890.6" y="682" width="160" height="100" as="geometry"/>
                </mxCell>
                <mxCell id="41" value="spoke3conn" style="text;html=1;align=center;verticalAlign=middle;resizable=0;points=[];autosize=1;strokeColor=none;fillColor=none;rotation=33.1;fontSize=13;" parent="1" vertex="1">
                    <mxGeometry x="841.1" y="462" width="90" height="30" as="geometry"/>
                </mxCell>
                <mxCell id="47" value="Inter-Hub" style="text;html=1;align=center;verticalAlign=middle;resizable=0;points=[];autosize=1;strokeColor=none;fillColor=none;fontColor=#000000;fontSize=13;" parent="1" vertex="1">
                    <mxGeometry x="646" y="498" width="80" height="30" as="geometry"/>
                </mxCell>
                <mxCell id="48" value="&lt;span style=&quot;color: rgb(0, 0, 0); font-size: 11px; background-color: rgb(251, 251, 251);&quot;&gt;UDR - 0.0,0,0/0 &lt;br style=&quot;font-size: 11px;&quot;&gt;Next Hop&amp;nbsp;&lt;/span&gt;&lt;b style=&quot;border-color: var(--border-color); color: rgb(0, 0, 0); text-align: center; background-color: rgb(251, 251, 251);&quot;&gt;SPK2NVALB&amp;nbsp;&lt;/b&gt;&lt;span style=&quot;color: rgb(0, 0, 0); font-size: 11px; background-color: rgb(251, 251, 251);&quot;&gt;(&lt;/span&gt;&lt;span style=&quot;color: rgb(0, 0, 0); background-color: rgb(251, 251, 251);&quot;&gt;10.2.0.38&lt;/span&gt;&lt;span style=&quot;color: rgb(0, 0, 0); font-size: 11px; background-color: rgb(251, 251, 251);&quot;&gt;)&lt;/span&gt;" style="aspect=fixed;html=1;points=[];align=left;image;fontSize=11;image=img/lib/azure2/networking/Route_Tables.svg;fontColor=#FF8000;fontStyle=1" parent="1" vertex="1">
                    <mxGeometry x="1300" y="867" width="20.65" height="20" as="geometry"/>
                </mxCell>
                <mxCell id="50" value="&lt;span style=&quot;color: rgb(0, 0, 0); font-size: 11px; background-color: rgb(251, 251, 251);&quot;&gt;UDR - 0.0.0.0/0 &lt;br style=&quot;font-size: 11px;&quot;&gt;Next Hop&amp;nbsp;&lt;/span&gt;&lt;b style=&quot;border-color: var(--border-color); color: rgb(0, 0, 0); text-align: center; background-color: rgb(251, 251, 251);&quot;&gt;SPK4NVALB&amp;nbsp;&lt;/b&gt;&lt;span style=&quot;color: rgb(0, 0, 0); font-size: 11px; background-color: rgb(251, 251, 251);&quot;&gt;(10.4.0.38)&lt;/span&gt;" style="aspect=fixed;html=1;points=[];align=left;image;fontSize=11;image=img/lib/azure2/networking/Route_Tables.svg;fontColor=#FF8000;fontStyle=1" parent="1" vertex="1">
                    <mxGeometry x="860.45" y="76" width="20.65" height="20" as="geometry"/>
                </mxCell>
                <mxCell id="51" value="&lt;span style=&quot;color: rgb(0, 0, 0); font-size: 11px; background-color: rgb(251, 251, 251);&quot;&gt;UDR - 0.0.0.0/0 &lt;br style=&quot;font-size: 11px;&quot;&gt;Next Hop&amp;nbsp;&lt;/span&gt;&lt;b style=&quot;border-color: var(--border-color); color: rgb(0, 0, 0); text-align: center; background-color: rgb(251, 251, 251);&quot;&gt;SPK4NVALB&amp;nbsp;&lt;/b&gt;&lt;span style=&quot;color: rgb(0, 0, 0); font-size: 11px; background-color: rgb(251, 251, 251);&quot;&gt;(10.4.0.38)&lt;/span&gt;" style="aspect=fixed;html=1;points=[];align=left;image;fontSize=11;image=img/lib/azure2/networking/Route_Tables.svg;fontColor=#FF8000;fontStyle=1" parent="1" vertex="1">
                    <mxGeometry x="1076.1000000000001" y="76" width="20.65" height="20" as="geometry"/>
                </mxCell>
                <mxCell id="56" value="BGP peer with vHub Virtual vRouters" style="text;strokeColor=none;align=left;fillColor=none;html=1;verticalAlign=middle;whiteSpace=wrap;rounded=0;rotation=-62.7;fontColor=#7F00FF;fontSize=10;" parent="1" vertex="1">
                    <mxGeometry x="457" y="435" width="98" height="31" as="geometry"/>
                </mxCell>
                <mxCell id="59" style="edgeStyle=none;html=1;fontFamily=Helvetica;dashed=1;opacity=50;" parent="1" source="58" target="17" edge="1">
                    <mxGeometry relative="1" as="geometry"/>
                </mxCell>
                <mxCell id="58" value="&lt;b&gt;Virtual Router (AS 65515)&lt;br&gt;&lt;font style=&quot;font-size: 12px;&quot;&gt;&lt;span style=&quot;text-align: left;&quot;&gt;192.168.1.68&lt;/span&gt;&lt;span style=&quot;text-align: left;&quot;&gt;&lt;br&gt;&lt;/span&gt;&lt;span style=&quot;text-align: left;&quot;&gt;192.168.1.69&lt;/span&gt;&lt;/font&gt;&lt;/b&gt;" style="text;strokeColor=default;align=center;fillColor=none;html=1;verticalAlign=middle;whiteSpace=wrap;rounded=0;fontFamily=Helvetica;fontStyle=0;dashed=1;fontColor=#7F00FF;" parent="1" vertex="1">
                    <mxGeometry x="173.85" y="524.5" width="160" height="61" as="geometry"/>
                </mxCell>
                <mxCell id="69" value="&lt;b&gt;Spoke2&lt;/b&gt;&lt;br style=&quot;font-size: 13px;&quot;&gt;10.2.0.0/24&lt;br style=&quot;font-size: 13px;&quot;&gt;&lt;br style=&quot;font-size: 13px;&quot;&gt;&lt;font style=&quot;font-size: 11px;&quot;&gt;&lt;b style=&quot;&quot;&gt;NVA1 10.2.0.36&lt;br&gt;NVA2 10.2.0.37&lt;br&gt;&lt;font style=&quot;font-size: 11px;&quot; color=&quot;#7f00ff&quot;&gt;ASN: 65002&lt;br&gt;Network: 10.2.0.0/16&lt;br&gt;&lt;/font&gt;&lt;/b&gt;&lt;b style=&quot;border-color: var(--border-color);&quot;&gt;NVALB 10.2.0.38&lt;/b&gt;&lt;/font&gt;&lt;b style=&quot;font-size: 12px;&quot;&gt;&lt;br&gt;&lt;/b&gt;" style="whiteSpace=wrap;html=1;fillColor=#f8cecc;strokeColor=#b85450;dashed=1;fontSize=13;" vertex="1" parent="1">
                    <mxGeometry x="440" y="268" width="160" height="134" as="geometry"/>
                </mxCell>
                <mxCell id="70" value="BGP peer with vHub Virtual vRouters" style="text;strokeColor=none;align=left;fillColor=none;html=1;verticalAlign=middle;whiteSpace=wrap;rounded=0;rotation=-56.7;fontColor=#7F00FF;fontSize=10;" vertex="1" parent="1">
                    <mxGeometry x="992" y="435" width="98" height="31" as="geometry"/>
                </mxCell>
                <mxCell id="76" style="edgeStyle=none;html=1;entryX=0.5;entryY=0;entryDx=0;entryDy=0;fontSize=11;fontColor=#7F00FF;endArrow=none;endFill=0;exitX=0.5;exitY=1;exitDx=0;exitDy=0;" edge="1" parent="1" source="72" target="69">
                    <mxGeometry relative="1" as="geometry"/>
                </mxCell>
                <mxCell id="72" value="&lt;b style=&quot;font-size: 13px;&quot;&gt;Spoke5&lt;/b&gt;&lt;br style=&quot;font-size: 13px;&quot;&gt;10.2.1.0/24&lt;br style=&quot;font-size: 13px;&quot;&gt;&lt;br style=&quot;font-size: 13px;&quot;&gt;&lt;b style=&quot;font-size: 13px;&quot;&gt;VM 10.2.1.4&lt;/b&gt;" style="whiteSpace=wrap;html=1;fillColor=#dae8fc;strokeColor=#6c8ebf;dashed=1;fontSize=13;" vertex="1" parent="1">
                    <mxGeometry x="321" y="131" width="136" height="102" as="geometry"/>
                </mxCell>
                <mxCell id="73" value="" style="aspect=fixed;html=1;points=[];align=center;image;fontSize=13;image=img/lib/azure2/networking/Virtual_Networks.svg;dashed=1;" vertex="1" parent="1">
                    <mxGeometry x="437" y="135" width="16.75" height="10" as="geometry"/>
                </mxCell>
                <mxCell id="74" value="&lt;span style=&quot;color: rgb(0, 0, 0); font-size: 11px; background-color: rgb(251, 251, 251);&quot;&gt;UDR - 0.0.0.0/0 &lt;br style=&quot;font-size: 11px;&quot;&gt;Next Hop&amp;nbsp;&lt;/span&gt;&lt;b style=&quot;border-color: var(--border-color); color: rgb(0, 0, 0); text-align: center; background-color: rgb(251, 251, 251);&quot;&gt;SPK2NVALB&amp;nbsp;&lt;/b&gt;&lt;span style=&quot;color: rgb(0, 0, 0); font-size: 11px; background-color: rgb(251, 251, 251);&quot;&gt;(10.2.0.38)&lt;/span&gt;" style="aspect=fixed;html=1;points=[];align=left;image;fontSize=11;image=img/lib/azure2/networking/Route_Tables.svg;fontColor=#FF8000;fontStyle=1" vertex="1" parent="1">
                    <mxGeometry x="321.00000000000006" y="76" width="20.65" height="20" as="geometry"/>
                </mxCell>
                <mxCell id="75" value="" style="aspect=fixed;html=1;points=[];align=center;image;fontSize=13;image=img/lib/azure2/networking/Virtual_Networks.svg;dashed=1;" vertex="1" parent="1">
                    <mxGeometry x="576.9999999999999" y="266" width="16.75" height="10" as="geometry"/>
                </mxCell>
                <mxCell id="80" style="edgeStyle=none;html=1;entryX=0.5;entryY=0;entryDx=0;entryDy=0;fontSize=11;fontColor=#7F00FF;endArrow=none;endFill=0;exitX=0.5;exitY=1;exitDx=0;exitDy=0;" edge="1" parent="1" source="77" target="69">
                    <mxGeometry relative="1" as="geometry"/>
                </mxCell>
                <mxCell id="77" value="&lt;b style=&quot;font-size: 13px;&quot;&gt;Spoke6&lt;/b&gt;&lt;br style=&quot;font-size: 13px;&quot;&gt;10.2.2.0/24&lt;br style=&quot;font-size: 13px;&quot;&gt;&lt;br style=&quot;font-size: 13px;&quot;&gt;&lt;b style=&quot;font-size: 13px;&quot;&gt;VM 10.2.2.4&lt;/b&gt;" style="whiteSpace=wrap;html=1;fillColor=#dae8fc;strokeColor=#6c8ebf;dashed=1;fontSize=13;" vertex="1" parent="1">
                    <mxGeometry x="573" y="129" width="136" height="100" as="geometry"/>
                </mxCell>
                <mxCell id="78" value="" style="aspect=fixed;html=1;points=[];align=center;image;fontSize=13;image=img/lib/azure2/networking/Virtual_Networks.svg;dashed=1;" vertex="1" parent="1">
                    <mxGeometry x="690" y="131" width="16.75" height="10" as="geometry"/>
                </mxCell>
                <mxCell id="79" value="&lt;span style=&quot;color: rgb(0, 0, 0); font-size: 11px; background-color: rgb(251, 251, 251);&quot;&gt;UDR - 0.0.0.0/0 &lt;br style=&quot;font-size: 11px;&quot;&gt;Next Hop&amp;nbsp;&lt;/span&gt;&lt;b style=&quot;border-color: var(--border-color); color: rgb(0, 0, 0); text-align: center; background-color: rgb(251, 251, 251);&quot;&gt;SPK2NVALB&amp;nbsp;&lt;/b&gt;&lt;span style=&quot;color: rgb(0, 0, 0); font-size: 11px; background-color: rgb(251, 251, 251);&quot;&gt;(10.2.0.38)&lt;/span&gt;" style="aspect=fixed;html=1;points=[];align=left;image;fontSize=11;image=img/lib/azure2/networking/Route_Tables.svg;fontColor=#FF8000;fontStyle=1" vertex="1" parent="1">
                    <mxGeometry x="573" y="72" width="20.65" height="20" as="geometry"/>
                </mxCell>
                <mxCell id="88" style="edgeStyle=none;html=1;exitX=0;exitY=0.5;exitDx=0;exitDy=0;fontSize=11;fontColor=default;endArrow=classic;endFill=1;dashed=1;opacity=50;" edge="1" parent="1" source="87" target="39">
                    <mxGeometry relative="1" as="geometry"/>
                </mxCell>
                <mxCell id="87" value="&lt;b&gt;Virtual Router (AS 65515)&lt;br&gt;&lt;font style=&quot;font-size: 12px;&quot;&gt;&lt;span style=&quot;text-align: left;&quot;&gt;192.168.2.68&lt;/span&gt;&lt;span style=&quot;text-align: left;&quot;&gt;&lt;br&gt;&lt;/span&gt;&lt;span style=&quot;text-align: left;&quot;&gt;192.168.2.69&lt;/span&gt;&lt;/font&gt;&lt;/b&gt;" style="text;strokeColor=default;align=center;fillColor=none;html=1;verticalAlign=middle;whiteSpace=wrap;rounded=0;fontFamily=Helvetica;fontStyle=0;dashed=1;fontColor=#7F00FF;" vertex="1" parent="1">
                    <mxGeometry x="1063" y="517" width="160" height="61" as="geometry"/>
                </mxCell>
                <mxCell id="91" value="spoke2conn" style="text;html=1;align=center;verticalAlign=middle;resizable=0;points=[];autosize=1;strokeColor=none;fillColor=none;rotation=-56.8;fontColor=#6600CC;fontStyle=1;fontSize=13;" vertex="1" parent="1">
                    <mxGeometry x="966" y="427" width="100" height="30" as="geometry"/>
                </mxCell>
            </root>
        </mxGraphModel>
    </diagram>
</mxfile>